<mxfile host="app.diagrams.net" modified="2021-04-22T13:26:36.729Z" agent="5.0 (Windows NT 10.0; Win64; x64) AppleWebKit/537.36 (KHTML, like Gecko) Chrome/89.0.4389.128 Safari/537.36" etag="j6wokRTF2Xq9Qn42rhyO" version="14.4.3" type="github">
  <diagram id="bvqQtn7LNLlrny6Ccrf4" name="Page-1">
    <mxGraphModel dx="1422" dy="762" grid="1" gridSize="10" guides="1" tooltips="1" connect="1" arrows="1" fold="1" page="1" pageScale="1" pageWidth="827" pageHeight="1169" math="0" shadow="0">
      <root>
        <mxCell id="0" />
        <mxCell id="1" parent="0" />
        <mxCell id="xmOXwS841WbV3enIH98i-6" value="data-engine" style="rounded=1;whiteSpace=wrap;html=1;" vertex="1" parent="1">
          <mxGeometry x="370" y="360" width="120" height="60" as="geometry" />
        </mxCell>
        <mxCell id="xmOXwS841WbV3enIH98i-7" value="总线&lt;br&gt;（服务区干预数据）" style="rounded=1;whiteSpace=wrap;html=1;" vertex="1" parent="1">
          <mxGeometry x="140" y="470" width="120" height="60" as="geometry" />
        </mxCell>
        <mxCell id="xmOXwS841WbV3enIH98i-8" value="语音中台&lt;br&gt;（个性化播报数据）" style="rounded=1;whiteSpace=wrap;html=1;" vertex="1" parent="1">
          <mxGeometry x="610" y="360" width="120" height="60" as="geometry" />
        </mxCell>
        <mxCell id="xmOXwS841WbV3enIH98i-9" value="bdrp" style="rounded=1;whiteSpace=wrap;html=1;" vertex="1" parent="1">
          <mxGeometry x="610" y="470" width="120" height="60" as="geometry" />
        </mxCell>
        <mxCell id="xmOXwS841WbV3enIH98i-10" value="data-partner&lt;br&gt;（情报数据、施工数据）" style="rounded=1;whiteSpace=wrap;html=1;" vertex="1" parent="1">
          <mxGeometry x="140" y="360" width="120" height="60" as="geometry" />
        </mxCell>
        <mxCell id="xmOXwS841WbV3enIH98i-11" value="干预&lt;br&gt;（阻断、预上线数据）" style="rounded=1;whiteSpace=wrap;html=1;" vertex="1" parent="1">
          <mxGeometry x="610" y="250" width="120" height="60" as="geometry" />
        </mxCell>
        <mxCell id="xmOXwS841WbV3enIH98i-15" value="路网数据&lt;br&gt;（SD、LD）" style="rounded=1;whiteSpace=wrap;html=1;" vertex="1" parent="1">
          <mxGeometry x="140" y="260" width="120" height="60" as="geometry" />
        </mxCell>
        <mxCell id="xmOXwS841WbV3enIH98i-16" value="" style="endArrow=classic;html=1;entryX=1;entryY=0.5;entryDx=0;entryDy=0;exitX=0;exitY=0.5;exitDx=0;exitDy=0;" edge="1" parent="1" source="xmOXwS841WbV3enIH98i-6" target="xmOXwS841WbV3enIH98i-15">
          <mxGeometry width="50" height="50" relative="1" as="geometry">
            <mxPoint x="360" y="380" as="sourcePoint" />
            <mxPoint x="440" y="370" as="targetPoint" />
          </mxGeometry>
        </mxCell>
        <mxCell id="xmOXwS841WbV3enIH98i-17" value="" style="endArrow=classic;html=1;entryX=1;entryY=0.5;entryDx=0;entryDy=0;exitX=0;exitY=0.5;exitDx=0;exitDy=0;" edge="1" parent="1" source="xmOXwS841WbV3enIH98i-6" target="xmOXwS841WbV3enIH98i-7">
          <mxGeometry width="50" height="50" relative="1" as="geometry">
            <mxPoint x="380" y="600" as="sourcePoint" />
            <mxPoint x="270" y="500" as="targetPoint" />
          </mxGeometry>
        </mxCell>
        <mxCell id="xmOXwS841WbV3enIH98i-18" value="" style="endArrow=classic;html=1;entryX=0;entryY=0.5;entryDx=0;entryDy=0;exitX=0;exitY=0.5;exitDx=0;exitDy=0;fontStyle=1" edge="1" parent="1" target="xmOXwS841WbV3enIH98i-9">
          <mxGeometry width="50" height="50" relative="1" as="geometry">
            <mxPoint x="490" y="390" as="sourcePoint" />
            <mxPoint x="380" y="290" as="targetPoint" />
          </mxGeometry>
        </mxCell>
        <mxCell id="xmOXwS841WbV3enIH98i-19" value="" style="endArrow=classic;html=1;entryX=1;entryY=0.5;entryDx=0;entryDy=0;" edge="1" parent="1" target="xmOXwS841WbV3enIH98i-10">
          <mxGeometry width="50" height="50" relative="1" as="geometry">
            <mxPoint x="370" y="390" as="sourcePoint" />
            <mxPoint x="260" y="400" as="targetPoint" />
          </mxGeometry>
        </mxCell>
        <mxCell id="xmOXwS841WbV3enIH98i-20" value="" style="endArrow=classic;html=1;entryX=0;entryY=0.5;entryDx=0;entryDy=0;exitX=0;exitY=0.5;exitDx=0;exitDy=0;" edge="1" parent="1" target="xmOXwS841WbV3enIH98i-8">
          <mxGeometry width="50" height="50" relative="1" as="geometry">
            <mxPoint x="490" y="390" as="sourcePoint" />
            <mxPoint x="380" y="290" as="targetPoint" />
          </mxGeometry>
        </mxCell>
        <mxCell id="xmOXwS841WbV3enIH98i-21" value="" style="endArrow=classic;html=1;entryX=0;entryY=0.5;entryDx=0;entryDy=0;exitX=0;exitY=0.5;exitDx=0;exitDy=0;" edge="1" parent="1" target="xmOXwS841WbV3enIH98i-11">
          <mxGeometry width="50" height="50" relative="1" as="geometry">
            <mxPoint x="490" y="390" as="sourcePoint" />
            <mxPoint x="380" y="290" as="targetPoint" />
          </mxGeometry>
        </mxCell>
        <mxCell id="xmOXwS841WbV3enIH98i-23" value="data-engine" style="rounded=1;whiteSpace=wrap;html=1;" vertex="1" parent="1">
          <mxGeometry x="349" y="790" width="120" height="60" as="geometry" />
        </mxCell>
        <mxCell id="xmOXwS841WbV3enIH98i-24" value="bdrp&lt;br&gt;（）" style="rounded=1;whiteSpace=wrap;html=1;" vertex="1" parent="1">
          <mxGeometry x="110" y="850" width="120" height="60" as="geometry" />
        </mxCell>
        <mxCell id="xmOXwS841WbV3enIH98i-25" value="新模块" style="rounded=1;whiteSpace=wrap;html=1;" vertex="1" parent="1">
          <mxGeometry x="530" y="790" width="120" height="60" as="geometry" />
        </mxCell>
        <mxCell id="xmOXwS841WbV3enIH98i-27" value="语音中台&lt;br&gt;（个性化播报）" style="rounded=1;whiteSpace=wrap;html=1;" vertex="1" parent="1">
          <mxGeometry x="110" y="740" width="120" height="60" as="geometry" />
        </mxCell>
        <mxCell id="xmOXwS841WbV3enIH98i-29" value="路网数据&lt;br&gt;（SD）" style="rounded=1;whiteSpace=wrap;html=1;" vertex="1" parent="1">
          <mxGeometry x="110" y="620" width="120" height="60" as="geometry" />
        </mxCell>
        <mxCell id="xmOXwS841WbV3enIH98i-30" value="" style="endArrow=classic;html=1;entryX=1;entryY=0.5;entryDx=0;entryDy=0;exitX=0;exitY=0.5;exitDx=0;exitDy=0;" edge="1" parent="1" source="xmOXwS841WbV3enIH98i-23" target="xmOXwS841WbV3enIH98i-29">
          <mxGeometry width="50" height="50" relative="1" as="geometry">
            <mxPoint x="339" y="810" as="sourcePoint" />
            <mxPoint x="419" y="800" as="targetPoint" />
          </mxGeometry>
        </mxCell>
        <mxCell id="xmOXwS841WbV3enIH98i-31" value="" style="endArrow=classic;html=1;entryX=1;entryY=0.5;entryDx=0;entryDy=0;exitX=0;exitY=0.5;exitDx=0;exitDy=0;" edge="1" parent="1" source="xmOXwS841WbV3enIH98i-23" target="xmOXwS841WbV3enIH98i-24">
          <mxGeometry width="50" height="50" relative="1" as="geometry">
            <mxPoint x="359" y="1030" as="sourcePoint" />
            <mxPoint x="249" y="930" as="targetPoint" />
          </mxGeometry>
        </mxCell>
        <mxCell id="xmOXwS841WbV3enIH98i-33" value="" style="endArrow=classic;html=1;entryX=1;entryY=0.5;entryDx=0;entryDy=0;" edge="1" parent="1" target="xmOXwS841WbV3enIH98i-27">
          <mxGeometry width="50" height="50" relative="1" as="geometry">
            <mxPoint x="349" y="820" as="sourcePoint" />
            <mxPoint x="239" y="830" as="targetPoint" />
          </mxGeometry>
        </mxCell>
        <mxCell id="xmOXwS841WbV3enIH98i-34" value="" style="endArrow=classic;html=1;entryX=0;entryY=0.5;entryDx=0;entryDy=0;exitX=0;exitY=0.5;exitDx=0;exitDy=0;" edge="1" parent="1" target="xmOXwS841WbV3enIH98i-25">
          <mxGeometry width="50" height="50" relative="1" as="geometry">
            <mxPoint x="469" y="820" as="sourcePoint" />
            <mxPoint x="359" y="720" as="targetPoint" />
          </mxGeometry>
        </mxCell>
        <mxCell id="xmOXwS841WbV3enIH98i-36" value="干预&lt;br&gt;（阻断、预上线数据）" style="rounded=1;whiteSpace=wrap;html=1;" vertex="1" parent="1">
          <mxGeometry x="110" y="960" width="120" height="60" as="geometry" />
        </mxCell>
        <mxCell id="xmOXwS841WbV3enIH98i-37" value="" style="endArrow=classic;html=1;exitX=0;exitY=0.5;exitDx=0;exitDy=0;entryX=1;entryY=0.5;entryDx=0;entryDy=0;" edge="1" parent="1" source="xmOXwS841WbV3enIH98i-23" target="xmOXwS841WbV3enIH98i-36">
          <mxGeometry width="50" height="50" relative="1" as="geometry">
            <mxPoint x="390" y="880" as="sourcePoint" />
            <mxPoint x="440" y="830" as="targetPoint" />
          </mxGeometry>
        </mxCell>
        <mxCell id="xmOXwS841WbV3enIH98i-38" value="路网数据&lt;br&gt;（LD）" style="rounded=1;whiteSpace=wrap;html=1;" vertex="1" parent="1">
          <mxGeometry x="770" y="620" width="120" height="60" as="geometry" />
        </mxCell>
        <mxCell id="xmOXwS841WbV3enIH98i-39" value="总线&lt;br&gt;（服务区干预数据）" style="rounded=1;whiteSpace=wrap;html=1;" vertex="1" parent="1">
          <mxGeometry x="770" y="790" width="120" height="60" as="geometry" />
        </mxCell>
        <mxCell id="xmOXwS841WbV3enIH98i-40" value="data-partner&lt;br&gt;（情报数据、施工数据）" style="rounded=1;whiteSpace=wrap;html=1;" vertex="1" parent="1">
          <mxGeometry x="770" y="960" width="120" height="60" as="geometry" />
        </mxCell>
        <mxCell id="xmOXwS841WbV3enIH98i-41" value="" style="endArrow=classic;html=1;entryX=0;entryY=0.5;entryDx=0;entryDy=0;" edge="1" parent="1" target="xmOXwS841WbV3enIH98i-39">
          <mxGeometry width="50" height="50" relative="1" as="geometry">
            <mxPoint x="650" y="820" as="sourcePoint" />
            <mxPoint x="711" y="829.5" as="targetPoint" />
          </mxGeometry>
        </mxCell>
        <mxCell id="xmOXwS841WbV3enIH98i-42" value="" style="endArrow=classic;html=1;entryX=0;entryY=0.5;entryDx=0;entryDy=0;exitX=1;exitY=0.5;exitDx=0;exitDy=0;" edge="1" parent="1" source="xmOXwS841WbV3enIH98i-25" target="xmOXwS841WbV3enIH98i-38">
          <mxGeometry width="50" height="50" relative="1" as="geometry">
            <mxPoint x="660" y="810" as="sourcePoint" />
            <mxPoint x="670" y="750" as="targetPoint" />
          </mxGeometry>
        </mxCell>
        <mxCell id="xmOXwS841WbV3enIH98i-44" value="" style="endArrow=classic;html=1;entryX=0;entryY=0.5;entryDx=0;entryDy=0;exitX=1;exitY=0.5;exitDx=0;exitDy=0;" edge="1" parent="1" source="xmOXwS841WbV3enIH98i-25" target="xmOXwS841WbV3enIH98i-40">
          <mxGeometry width="50" height="50" relative="1" as="geometry">
            <mxPoint x="660" y="830" as="sourcePoint" />
            <mxPoint x="740" y="660" as="targetPoint" />
          </mxGeometry>
        </mxCell>
      </root>
    </mxGraphModel>
  </diagram>
</mxfile>
